<svg width="127" height="51" viewBox="0 0 127 51" fill="none" xmlns="http://www.w3.org/2000/svg">
<g clip-path="url(#clip0_134_2181)">
<path d="M100.902 -0.054794C101.247 -0.0525522 101.592 -0.054794 101.938 -0.0575962C104.068 -0.0603983 106.161 0.216739 108.214 0.788107L108.602 0.895291C112.661 2.06773 116.215 4.2414 119.239 7.14559L119.453 7.34693C124.108 11.7349 126.846 18.0983 127.03 24.448C127.144 30.4683 125.542 36.2587 121.779 41.0522L121.511 41.4047C117.305 46.7489 111.096 50.0789 104.358 50.9606C103.336 51.0727 102.31 51.0692 101.282 51.0612L100.921 51.06C98.985 51.0499 97.132 50.919 95.2499 50.4395L94.8912 50.3509C88.393 48.6998 82.6329 44.5321 79.1837 38.8037C75.6157 32.7627 74.5702 25.8127 76.2661 19.0052C77.9961 12.4649 82.3121 6.79518 88.1891 3.38462C90.1277 2.29135 92.1604 1.44256 94.2974 0.814308L94.6327 0.713429C96.6867 0.133934 98.7735 -0.0711868 100.902 -0.054794Z" fill="white"/>
<path d="M117.263 19.3352C118.567 20.3608 119.555 21.986 119.887 23.6063C120.195 26.2511 119.925 28.5118 118.251 30.6841C117.056 32.1342 115.292 32.9093 113.453 33.206C111.324 33.3536 109.299 32.8486 107.623 31.4897C106.629 30.556 105.969 29.4483 105.551 28.1621C105.508 28.034 105.466 27.906 105.423 27.774C104.796 25.6216 105.058 23.4342 106.089 21.4456C107.19 19.605 108.719 18.5602 110.772 17.9341C113.103 17.457 115.343 17.9167 117.263 19.3352Z" fill="white"/>
<path d="M46.2852 15.5522L52.7322 15.5172L54.7577 15.5018C55.5824 15.4993 55.5824 15.4993 55.9702 15.4987C56.2374 15.4978 56.5045 15.496 56.7717 15.4931C58.8545 15.4718 60.8581 15.5092 62.5129 16.9533C63.7461 18.2207 64.1162 19.6822 64.0948 21.4106C63.9915 22.9633 63.3489 24.3074 62.2307 25.3949C61.6941 25.8364 61.1343 26.1145 60.4933 26.3735L60.2173 26.4878C59.9951 26.5796 59.7725 26.6707 59.5496 26.761C59.908 27.4074 60.2673 28.0533 60.6274 28.6987C61.3927 30.0705 62.1785 31.4309 62.9845 32.7794C63.4744 33.6028 63.9291 34.4463 64.3474 35.3077C63.3654 35.5254 62.3437 35.6752 61.384 35.3077C60.5478 34.5511 60.1135 33.4365 59.6444 32.4349C59.254 31.6242 58.7989 30.851 58.3502 30.0711C58.1926 29.7899 58.0353 29.5086 57.8783 29.2272C57.5153 28.5799 57.1336 27.9466 56.7392 27.3178C56.5863 27.0412 56.5863 27.0412 56.5863 26.761H48.9663V35.3077H46.2852V15.5522ZM48.9663 17.9341V24.239C50.6624 24.2554 50.6624 24.2554 52.3586 24.2663C53.0512 24.2697 53.7439 24.2736 54.4366 24.2813C54.9955 24.2875 55.5546 24.2907 56.1137 24.2923C56.326 24.2932 56.5383 24.2952 56.7505 24.2983C58.1659 24.3178 59.3894 24.2603 60.5286 23.3458C61.2133 22.4805 61.4549 21.6396 61.3537 20.5497C61.2178 19.795 60.9586 19.1721 60.3963 18.6346C59.5843 18.1166 58.8532 17.9164 57.8893 17.9181H57.5972C57.2787 17.9181 56.9604 17.9194 56.6419 17.9204L55.9793 17.9211C55.3983 17.9216 54.8172 17.9227 54.2361 17.9244C53.5387 17.9261 52.8413 17.9268 52.144 17.9276C51.0848 17.929 50.0254 17.9317 48.9663 17.9341Z" fill="white"/>
<path d="M9.59556 15.5522H11.9944C12.6855 16.9214 13.3763 18.2906 14.0667 19.66C14.3875 20.2963 14.7084 20.9325 15.0295 21.5686C17.5158 26.494 17.5158 26.494 18.5414 28.6443C19.226 30.0783 19.9487 31.4931 20.6708 32.9086C20.8474 33.2552 21.0235 33.6019 21.1991 33.9488L21.3621 34.2667C21.7311 34.9957 21.7311 34.9957 21.7311 35.3077H18.9089L18.2828 34.1343L18.0945 33.7826C17.4511 32.5727 16.8447 31.3489 16.2278 30.1237L5.36222 29.9836L5.08 30.8242C4.91185 31.1812 4.73802 31.5356 4.55859 31.8871L4.40789 32.1851C4.25013 32.4964 4.09199 32.8076 3.93347 33.1185L3.61103 33.755C3.34857 34.2729 3.08563 34.7905 2.82222 35.3077H0C0.182739 34.7636 0.345017 34.3067 0.595066 33.8034L0.783449 33.4221L0.988342 33.0118L1.20481 32.5746C1.44084 32.099 1.6772 31.6236 1.91389 31.1483L2.40919 30.149C2.70853 29.5451 3.00807 28.9413 3.30779 28.3377C4.14486 26.6516 4.97854 24.9638 5.81208 23.2758L6.03419 22.826C7.22995 20.4056 8.41708 17.981 9.59556 15.5522ZM10.7244 19.1951C10.1902 20.2495 9.65666 21.3042 9.12382 22.3592C8.87642 22.8491 8.62868 23.3388 8.38059 23.8284C8.14126 24.3006 7.90246 24.773 7.66417 25.2456C7.57301 25.4261 7.48166 25.6065 7.39013 25.7869C7.26231 26.0389 7.13488 26.2912 7.00786 26.5437L6.78759 26.9793C6.61289 27.3016 6.61289 27.3016 6.63222 27.6017H15.0989C14.1113 25.5236 14.1113 25.5236 13.0974 23.4586L12.9151 23.0941C12.7912 22.8466 12.6671 22.5993 12.5428 22.3521C12.352 21.9717 12.1624 21.5907 11.9727 21.2097L11.607 20.4812L11.4364 20.1373C11.1866 19.5709 11.1866 19.5709 10.7244 19.1951Z" fill="white"/>
<path d="M112.378 15.6397L112.866 15.6348C115.449 15.6435 117.761 16.5487 119.64 18.3095C121.66 20.4394 122.602 23.0756 122.53 25.9871C122.396 28.563 121.321 31.2006 119.397 32.9706C116.703 35.0925 113.881 35.5448 110.49 35.3076C109.736 35.1905 109.061 34.9339 108.374 34.607L107.952 34.4176C106.964 33.9319 106.188 33.274 105.41 32.5054L105.142 32.2542C103.29 30.3697 102.633 27.5903 102.663 25.0402C102.752 22.5168 103.758 20.0838 105.572 18.3012C106.625 17.3414 107.734 16.6052 109.079 16.1125L109.375 16.0019C110.38 15.6605 111.322 15.6292 112.378 15.6397ZM107.104 20.0356C105.614 21.8142 104.965 23.9012 105.1 26.1953C105.305 28.3127 106.191 30.262 107.839 31.6467C109.504 32.8908 111.394 33.3637 113.454 33.2059C115.545 32.8197 117.183 32.0017 118.535 30.3337C119.976 28.2477 120.203 26.0469 119.877 23.5915C119.473 21.7326 118.341 20.096 116.779 19.0023C113.742 17.1398 109.601 17.3358 107.104 20.0356Z" fill="#1E733A"/>
<path d="M95.6738 17.2335C96.7134 18.0034 97.5747 18.9085 98.2138 20.0357C98.0172 20.1909 97.8203 20.3456 97.623 20.4999L97.2905 20.7609C96.9512 21.0112 96.6042 21.2271 96.2383 21.4368L96.0101 21.1035C94.7765 19.3764 93.3431 18.4544 91.2377 17.9603L90.7349 17.9341L90.3012 17.9079C88.2494 17.8361 86.518 18.4613 84.9405 19.7467C83.3424 21.2395 82.7252 23.1167 82.6354 25.2582C82.593 27.5567 83.2944 29.5165 84.8854 31.2035C86.447 32.6527 88.432 33.1541 90.514 33.1136C92.4966 33.0134 94.1231 32.0109 95.4798 30.6249C95.8767 30.1725 95.993 29.8857 96.0146 29.2988L96.0297 28.94L96.0442 28.486L96.0972 27.0412H90.876V24.7995H98.496L98.5755 27.6367L98.6105 28.5212C98.6439 29.9867 98.5588 30.9442 97.5476 32.0525L97.226 32.3654C97.0671 32.5432 96.9083 32.7213 96.7498 32.8996C94.8931 34.6336 92.5817 35.3325 90.0999 35.3427L89.5797 35.3515C86.8332 35.3632 84.6624 34.3597 82.6762 32.5083C80.4979 30.2741 80.0753 27.5323 80.1136 24.5554C80.1873 22.1385 81.2425 19.8789 82.9655 18.176C86.3807 15.0286 91.7886 14.784 95.6738 17.2335Z" fill="#1E733A"/>
<path d="M25.9648 15.5522H41.7693V17.9341H28.646V23.5385H36.5482V25.9204H28.646V35.3077H25.9648V15.5522ZM68.7215 15.5522H71.4026V35.4479H68.7215V15.5522Z" fill="white"/>
</g>
<defs>
<clipPath id="clip0_134_2181">
<rect width="127" height="51" fill="white"/>
</clipPath>
</defs>
</svg>
