<svg width="32" height="23" viewBox="0 0 32 23" fill="none" xmlns="http://www.w3.org/2000/svg">
<path fill-rule="evenodd" clip-rule="evenodd" d="M28 1.9846H24.346L22.436 7.42001L20.4429 1.9846H16.7059V10.4479L12.8858 1.9846H9.81328L5.99313 10.6317H8.65047L9.39787 8.90235H13.3841L14.1315 10.6317H19.1142V4.61982L21.3564 10.6317H23.4325L25.6746 4.61982V10.6317H28V11.9493H24.9272L22.436 14.667L19.8616 11.9493H9.31493V20.5964H19.7787L22.3528 17.7964L24.9272 20.5964H28V21.6667H24.346L22.3528 19.5257L20.3597 21.6667H7.98626V11.7846H4L8.9827 0.666748H13.7993L15.5431 4.45509V0.666748H21.5225L22.519 3.54919L23.5156 0.666748H28V1.9846ZM28 13.8433L25.7578 16.2316L28 18.6198V20.5964L23.9308 16.2316L28 11.9493V13.8433ZM16.7059 20.5964V18.5376H11.7232V17.22H16.6227V15.2434H11.7232V13.9258H16.7059V11.9493L20.8581 16.2316L16.7059 20.5964ZM10.1453 7.00806L11.3081 4.20811L12.4706 7.00806H10.1453Z" fill="white"/>
</svg>
