<svg width="28" height="29" viewBox="0 0 28 29" fill="none" xmlns="http://www.w3.org/2000/svg">
<path d="M21.75 4.6001H9.77C8.86 4.6001 8.10999 5.3001 8.03999 6.2001V13.3101L8.02 17.4701V17.5901H6.52V14.0601L6.53 12.5601H4V24.1001H23.5V6.3501C23.5 5.3801 22.72 4.6001 21.75 4.6001ZM20.47 20.3101L11.49 20.2901V18.7901L20.47 18.8101V20.3101ZM20.47 17.7301H11.49V16.2201H20.47V17.7301ZM19.81 13.4001C19.29 13.9201 18.6 14.2101 17.87 14.2101C17.14 14.2101 16.43 13.9201 15.92 13.3901C15.41 12.8901 15.12 12.2001 15.12 11.4601C15.12 10.7201 15.41 10.0201 15.93 9.5101C16.43 9.0001 17.12 8.7101 17.87 8.7101C19.38 8.7101 20.62 9.9401 20.62 11.4601C20.62 12.2001 20.33 12.8901 19.81 13.4001Z" fill="black"/>
<path d="M23.4004 0.800293C25.4991 0.800293 27.2002 2.50142 27.2002 4.6001C27.2002 6.69878 25.4991 8.3999 23.4004 8.3999C21.3017 8.3999 19.6006 6.69878 19.6006 4.6001C19.6006 2.50142 21.3017 0.800293 23.4004 0.800293Z" fill="#0898A0" stroke="white" stroke-width="1.6"/>
</svg>
