<svg width="28" height="29" viewBox="0 0 28 29" fill="none" xmlns="http://www.w3.org/2000/svg">
<path d="M23.5 24.1001H4V12.5601H8.02V6.3501C8.02 5.3901 8.81 4.6001 9.77 4.6001H21.75C22.71 4.6001 23.5 5.3901 23.5 6.3501V24.1001ZM5.5 22.6001H22V6.3501C22 6.2101 21.89 6.1001 21.75 6.1001H9.77C9.63 6.1001 9.52 6.2101 9.52 6.3501V17.4701H8.02V14.0601H5.5V22.6001ZM20.47 20.3101L11.49 20.2901V18.7901L20.48 18.8101V20.3101H20.47ZM20.47 17.7401L11.49 17.7201V16.2201L20.48 16.2401V17.7401H20.47ZM17.87 14.2101C17.13 14.2101 16.44 13.9201 15.92 13.3901C15.41 12.8901 15.12 12.2001 15.12 11.4601C15.12 10.7201 15.41 10.0301 15.94 9.5101C16.44 9.0001 17.13 8.7101 17.87 8.7101C19.39 8.7101 20.62 9.9401 20.62 11.4601C20.62 12.2001 20.33 12.8901 19.81 13.4001C19.3 13.9201 18.61 14.2101 17.87 14.2101ZM17.87 10.2101C17.54 10.2101 17.23 10.3401 17 10.5701C16.75 10.8101 16.62 11.1201 16.62 11.4601C16.62 11.8001 16.75 12.1001 16.98 12.3301C17.46 12.8301 18.28 12.8101 18.74 12.3401H18.75C18.98 12.1001 19.11 11.7901 19.11 11.4501C19.11 10.7601 18.55 10.2001 17.86 10.2001L17.87 10.2101Z" fill="#A8ACB3"/>
<path d="M23.4004 0.800293C25.4991 0.800293 27.2002 2.50142 27.2002 4.6001C27.2002 6.69878 25.4991 8.3999 23.4004 8.3999C21.3017 8.3999 19.6006 6.69878 19.6006 4.6001C19.6006 2.50142 21.3017 0.800293 23.4004 0.800293Z" fill="#0898A0" stroke="white" stroke-width="1.6"/>
</svg>
