<svg width="32" color="white" height="33" viewBox="0 0 32 33" fill="none" xmlns="http://www.w3.org/2000/svg">
<path fill-rule="evenodd" fill="currentColor" clip-rule="evenodd" d="M14.4418 13.4954C14.6835 13.6116 14.8372 13.856 14.8372 14.1242V20.6358C14.8372 21.0211 14.5248 21.3335 14.1395 21.3335C13.7542 21.3335 13.4419 21.0211 13.4419 20.6358V15.5758L12.2498 16.5295C11.9489 16.7701 11.5099 16.7214 11.2692 16.4205C11.0285 16.1196 11.0773 15.6806 11.3781 15.4399L13.7037 13.5794C13.9131 13.4119 14.2001 13.3792 14.4418 13.4954ZM16.6275 14.2216C16.7858 13.7468 17.2301 13.4265 17.7306 13.4265H20.186C20.5713 13.4265 20.8837 13.7389 20.8837 14.1242C20.8837 14.5095 20.5713 14.8219 20.186 14.8219H17.8982L17.4331 16.2172H18.3256C19.7384 16.2172 20.8837 17.3625 20.8837 18.7754C20.8837 20.1882 19.7384 21.3335 18.3256 21.3335H16.4651C16.0798 21.3335 15.7674 21.0211 15.7674 20.6358C15.7674 20.2505 16.0798 19.9381 16.4651 19.9381H18.3256C18.9678 19.9381 19.4884 19.4176 19.4884 18.7754C19.4884 18.1332 18.9678 17.6126 18.3256 17.6126H17.1104C16.3167 17.6126 15.7564 16.835 16.0073 16.0821L16.6275 14.2216Z" />
<path fill-rule="evenodd" fill="currentColor"  clip-rule="evenodd" d="M15.3712 7.77546C15.4873 7.53374 15.7318 7.38 16 7.38C16.684 7.38 17.3527 7.44879 17.9993 7.58003C22.564 8.50663 26 12.5413 26 17.38C26 22.9029 21.5229 27.38 16 27.38C10.4772 27.38 6 22.9029 6 17.38C6 13.2783 8.46939 9.75487 11.9997 8.2124C12.3528 8.05813 12.7641 8.2193 12.9184 8.57239C13.0727 8.92547 12.9115 9.33676 12.5584 9.49103C9.51794 10.8195 7.39535 13.8526 7.39535 17.38C7.39535 22.1322 11.2478 25.9847 16 25.9847C20.7522 25.9847 24.6047 22.1322 24.6047 17.38C24.6047 13.5191 22.0612 10.2509 18.5581 9.16181V10.4033C18.5581 10.6996 18.371 10.9635 18.0914 11.0616C17.8118 11.1597 17.5007 11.0705 17.3156 10.8391L15.4552 8.51351C15.2876 8.30409 15.255 8.01718 15.3712 7.77546Z" />
</svg>
