<svg width="24" height="24" viewBox="0 0 24 24" fill="currentColor" xmlns="http://www.w3.org/2000/svg">
<g clip-path="url(#clip0_2403_6070)">
<path d="M7.52493 21.48C4.25493 19.94 1.91493 16.76 1.55493 13H0.0549316C0.564932 19.16 5.71493 24 12.0049 24L12.6649 23.97L8.85493 20.16L7.52493 21.48ZM8.41493 14.96C8.22493 14.96 8.04493 14.93 7.89493 14.88C7.73493 14.82 7.60493 14.75 7.49493 14.64C7.38493 14.54 7.29493 14.42 7.23493 14.27C7.17493 14.13 7.14493 13.97 7.14493 13.8H5.84493C5.84493 14.16 5.91493 14.48 6.05493 14.75C6.19493 15.02 6.38493 15.25 6.61493 15.44C6.85493 15.62 7.12493 15.76 7.43493 15.85C7.73493 15.95 8.05493 16 8.39493 16C8.76493 16 9.11493 15.95 9.42493 15.85C9.74493 15.75 10.0249 15.6 10.2549 15.41C10.4849 15.22 10.6749 14.98 10.8049 14.69C10.9349 14.4 11.0049 14.08 11.0049 13.72C11.0049 13.53 10.9849 13.34 10.9349 13.16C10.8849 12.98 10.8149 12.81 10.7049 12.65C10.6049 12.49 10.4649 12.35 10.3049 12.22C10.1349 12.09 9.93493 11.99 9.69493 11.91C9.89493 11.82 10.0649 11.71 10.2149 11.58C10.3649 11.45 10.4849 11.31 10.5849 11.16C10.6849 11.01 10.7549 10.86 10.8049 10.7C10.8549 10.54 10.8749 10.38 10.8749 10.22C10.8749 9.86 10.8149 9.54 10.6949 9.26C10.5749 8.98 10.4049 8.75 10.1849 8.57C9.98493 8.38 9.71493 8.24 9.41493 8.14C9.10493 8.05 8.76493 8 8.39493 8C8.03493 8 7.70493 8.05 7.39493 8.16C7.09493 8.27 6.82493 8.42 6.60493 8.61C6.39493 8.8 6.22493 9.02 6.09493 9.28C5.97493 9.54 5.91493 9.82 5.91493 10.13H7.21493C7.21493 9.96 7.24493 9.81 7.30493 9.68C7.36493 9.55 7.44493 9.43 7.55493 9.34C7.66493 9.25 7.78493 9.17 7.93493 9.12C8.08493 9.07 8.23493 9.04 8.41493 9.04C8.81493 9.04 9.11493 9.14 9.30493 9.35C9.49493 9.55 9.59493 9.84 9.59493 10.21C9.59493 10.39 9.56493 10.55 9.51493 10.7C9.46493 10.85 9.37493 10.97 9.26493 11.07C9.15493 11.17 9.01493 11.25 8.85493 11.31C8.69493 11.37 8.49493 11.4 8.27493 11.4H7.50493V12.43H8.27493C8.49493 12.43 8.69493 12.45 8.87493 12.5C9.05493 12.55 9.20493 12.63 9.32493 12.73C9.44493 12.84 9.54493 12.97 9.61493 13.13C9.68493 13.29 9.71493 13.48 9.71493 13.7C9.71493 14.11 9.59493 14.42 9.36493 14.63C9.13493 14.86 8.81493 14.96 8.41493 14.96ZM16.9649 9.04C16.6449 8.71 16.2649 8.45 15.8249 8.27C15.3849 8.09 14.8949 8 14.3549 8H11.9949V16H14.2949C14.8449 16 15.3549 15.91 15.8049 15.73C16.2549 15.55 16.6449 15.3 16.9649 14.97C17.2849 14.64 17.5349 14.24 17.7049 13.78C17.8749 13.31 17.9649 12.79 17.9649 12.21V11.81C17.9649 11.23 17.8749 10.71 17.7049 10.24C17.5349 9.77 17.2849 9.37 16.9649 9.04ZM16.5749 12.2C16.5749 12.62 16.5249 12.99 16.4349 13.33C16.3349 13.66 16.1949 13.95 16.0049 14.18C15.8149 14.41 15.5749 14.59 15.2949 14.71C15.0049 14.83 14.6749 14.89 14.3049 14.89H13.3949V9.12H14.3649C15.0849 9.12 15.6349 9.35 16.0049 9.81C16.3849 10.27 16.5749 10.93 16.5749 11.8V12.2ZM12.0049 0L11.3449 0.03L15.1549 3.84L16.4849 2.51C19.7549 4.06 22.0949 7.23 22.4449 10.99H23.9449C23.4449 4.84 18.2949 0 12.0049 0Z" />
</g>
<defs>
<clipPath id="clip0_2403_6070">
<rect width="24" height="24" />
</clipPath>
</defs>
</svg>
