<svg width="24" height="24" viewBox="0 0 24 24" fill="currentColor" xmlns="http://www.w3.org/2000/svg">
<path d="M1.44507 4.1702L3.06507 5.7902C3.06507 5.8402 3.05507 5.8902 3.05507 5.9502V9.7502C5.75507 9.7502 6.05507 11.9102 6.05507 12.4502C6.05507 12.9902 5.76507 15.1502 3.05507 15.1502V18.9502C3.05507 20.0502 3.95507 20.9502 5.05507 20.9502H8.85507C8.85507 18.2402 11.0151 17.9502 11.5551 17.9502C12.0951 17.9502 14.2551 18.2402 14.2551 20.9502H18.0551C18.1151 20.9502 18.1651 20.9502 18.2151 20.9402L19.8251 22.5502L21.2351 21.1402L2.86507 2.7602L1.44507 4.1702ZM11.5551 15.9502C10.0551 15.9502 7.98507 16.7802 7.18507 18.9502H5.05507V16.8202C7.22507 16.0202 8.05507 13.9502 8.05507 12.4502C8.05507 11.7602 7.87507 10.9502 7.47507 10.2002L13.8051 16.5302C13.0551 16.1302 12.2451 15.9502 11.5551 15.9502ZM8.88507 5.9502L6.88507 3.9502H9.05507C9.05507 2.5702 10.1751 1.4502 11.5551 1.4502C12.9351 1.4502 14.0551 2.5702 14.0551 3.9502H18.0551C19.1551 3.9502 20.0551 4.8502 20.0551 5.9502V9.9502C21.4351 9.9502 22.5551 11.0702 22.5551 12.4502C22.5551 13.8302 21.4351 14.9502 20.0551 14.9502V17.1202L18.0551 15.1202V12.9502H20.0551C20.3351 12.9502 20.5551 12.7302 20.5551 12.4502C20.5551 12.1702 20.3351 11.9502 20.0551 11.9502H18.0551V5.9502H12.0551V3.9502C12.0551 3.6702 11.8351 3.4502 11.5551 3.4502C11.2751 3.4502 11.0551 3.6702 11.0551 3.9502V5.9502H8.88507Z" />
</svg>
