<svg width="24" height="24" viewBox="0 0 24 24" fill="currentColor" xmlns="http://www.w3.org/2000/svg">
<g clip-path="url(#clip0_2403_6371)">
<path d="M21.5026 14.5015H23.5026C23.5026 19.4715 19.4726 23.5015 14.5026 23.5015V21.5015C18.3726 21.5015 21.5026 18.3715 21.5026 14.5015ZM14.5026 17.5015V19.5015C17.2626 19.5015 19.5026 17.2615 19.5026 14.5015H17.5026C17.5026 16.1615 16.1626 17.5015 14.5026 17.5015ZM18.7626 1.09152L22.3026 4.63152C23.0826 5.41152 23.0826 6.68152 22.3026 7.46152L19.1226 10.6415C18.3426 11.4215 17.0726 11.4215 16.2926 10.6415L15.0526 9.40152L14.3426 10.1015L15.5826 11.3415C16.3626 12.1215 16.3626 13.3915 15.5826 14.1715L14.1726 15.5815C13.3926 16.3615 12.1226 16.3615 11.3426 15.5815L10.1026 14.3415L9.39256 15.0515L10.6326 16.2915C11.4126 17.0715 11.4126 18.3415 10.6326 19.1215L7.45256 22.3015C6.67256 23.0815 5.40256 23.0815 4.62256 22.3015L1.08256 18.7615C0.302559 17.9815 0.302559 16.7115 1.08256 15.9315L4.26256 12.7515C5.04256 11.9715 6.31256 11.9715 7.09256 12.7515L8.33256 13.9915L9.04256 13.2815L7.80256 12.0515C7.02256 11.2715 7.02256 10.0015 7.80256 9.22152L9.22256 7.80152C10.0026 7.02152 11.2726 7.02152 12.0526 7.80152L13.2926 9.04152L14.0026 8.33152L12.7526 7.10152C11.9726 6.32152 11.9726 5.05152 12.7526 4.27152L15.9326 1.09152C16.7226 0.301523 17.9826 0.301523 18.7626 1.09152ZM3.56256 16.2915L2.50256 17.3515L6.04256 20.8915L7.10256 19.8315L3.56256 16.2915ZM5.68256 14.1715L4.62256 15.2315L8.16256 18.7715L9.22256 17.7115L5.68256 14.1715ZM10.6326 9.22152L9.22256 10.6315L12.7626 14.1715L14.1726 12.7615L10.6326 9.22152ZM15.2326 4.62152L14.1726 5.68152L17.7126 9.22152L18.7726 8.16152L15.2326 4.62152ZM17.3526 2.50152L16.2926 3.56152L19.8326 7.10152L20.8926 6.04152L17.3526 2.50152Z" />
</g>
<defs>
<clipPath id="clip0_2403_6371">
<rect width="24" height="24" />
</clipPath>
</defs>
</svg>
