<svg width="24" height="24" viewBox="0 0 24 24" fill="none" xmlns="http://www.w3.org/2000/svg">
<path d="M8.44507 10.2555C8.35507 10.5855 8.30507 10.9355 8.30507 11.2955C8.30507 12.3955 8.75507 13.3955 9.47507 14.1255L8.05507 15.5455C6.97507 14.4555 6.30507 12.9555 6.30507 11.2955C6.30507 10.3655 6.51507 9.49547 6.88507 8.70547L5.41507 7.23547C4.70507 8.42547 4.30507 9.81547 4.30507 11.2955C4.30507 13.5055 5.20507 15.5055 6.65507 16.9455L5.23507 18.3655C3.42507 16.5555 2.30507 14.0555 2.30507 11.2955C2.30507 9.25547 2.91507 7.36547 3.96507 5.78547L1.69507 3.51547L3.10507 2.10547L21.4851 20.4855L20.0751 21.8955L8.44507 10.2555ZM17.7251 13.8855C18.0951 13.0955 18.3051 12.2255 18.3051 11.2955C18.3051 9.63547 17.6351 8.13547 16.5451 7.05547L15.1251 8.47547C15.8551 9.19547 16.3051 10.1955 16.3051 11.2955C16.3051 11.6555 16.2551 12.0055 16.1651 12.3355L17.7251 13.8855ZM20.3051 11.2955C20.3051 12.7755 19.9051 14.1655 19.1951 15.3555L20.6451 16.8055C21.6951 15.2255 22.3051 13.3355 22.3051 11.2955C22.3051 8.53547 21.1851 6.03547 19.3751 4.22547L17.9551 5.64547C19.4051 7.08547 20.3051 9.08547 20.3051 11.2955Z" fill="black"/>
</svg>
