<svg width="24" height="24" viewBox="0 0 24 24" fill="none" xmlns="http://www.w3.org/2000/svg">
<path d="M19.9741 10.0029L15.8242 10.0129C15.6642 10.0029 15.5142 10.0329 15.3742 10.0929L14.7842 10.3529L12.9542 6.25293C12.3942 4.99293 10.9141 4.42293 9.65415 4.98293C8.39415 5.54293 7.82415 7.02293 8.38415 8.28293L11.6842 15.7329L9.81415 16.1229C9.62415 16.1729 8.82415 16.3929 8.45415 17.3329L7.75415 19.1929L14.5342 21.8629C15.0242 22.0529 15.5841 22.0429 16.0641 21.8229L22.0541 19.1729C22.9441 18.7729 23.4242 17.7929 23.1842 16.8529L21.8242 11.5129C21.6042 10.6529 20.8541 10.0429 19.9741 10.0029ZM21.2442 17.3429L15.2542 20.0029L10.3342 18.0429L14.5142 17.1629L10.2142 7.46293C10.1042 7.21293 10.2142 6.91293 10.4642 6.80293C10.7142 6.69293 11.0142 6.80293 11.1242 7.05293L13.6242 12.7029L15.2341 11.9929L19.8841 12.0029L21.2442 17.3429ZM3.55415 12.1829C3.35415 11.3229 3.25415 10.4229 3.25415 9.50293C3.25415 6.66293 4.24415 4.05293 5.88415 2.00293L6.95415 3.07293C5.57415 4.85293 4.75415 7.08293 4.75415 9.50293C4.75415 10.3829 4.86415 11.2429 5.07415 12.0629L6.69415 10.4429L7.75415 11.5029L4.25415 15.0029L0.75415 11.5029L1.81415 10.4429L3.55415 12.1829Z" fill="black"/>
</svg>
