<svg width="24" height="24" viewBox="0 0 24 24" fill="none" xmlns="http://www.w3.org/2000/svg">
<path d="M8.24507 4.81531L6.79507 3.35531C8.37507 2.30531 10.2651 1.69531 12.3051 1.69531C17.8251 1.69531 22.3051 6.17531 22.3051 11.6953C22.3051 13.7353 21.6951 15.6253 20.6451 17.2053L19.1851 15.7453C19.8951 14.5553 20.3051 13.1753 20.3051 11.6953C20.3051 7.28531 16.7151 3.69531 12.3051 3.69531C10.8251 3.69531 9.44507 4.10531 8.24507 4.81531ZM17.9651 9.22531L16.5551 7.81531L13.9051 10.4653L15.3151 11.8753L17.9651 9.22531ZM20.0851 22.3053L17.8151 20.0353C16.2351 21.0853 14.3451 21.6953 12.3051 21.6953C6.78507 21.6953 2.30507 17.2153 2.30507 11.6953C2.30507 9.65531 2.91507 7.76531 3.96507 6.18531L1.69507 3.91531L3.10507 2.50531L21.4851 20.8853L20.0851 22.3053ZM16.3651 18.5753L12.4851 14.6953L10.8951 16.2853L6.65507 12.0453L8.06507 10.6353L10.8951 13.4653L11.0751 13.2853L5.42507 7.63531C4.71507 8.83531 4.30507 10.2153 4.30507 11.6953C4.30507 16.1053 7.89507 19.6953 12.3051 19.6953C13.7851 19.6953 15.1651 19.2853 16.3651 18.5753Z" fill="black"/>
</svg>
